<svg width="129" height="129" viewBox="0 0 129 129" fill="none" xmlns="http://www.w3.org/2000/svg">
<g clip-path="url(#clip0_17_2428)">
<path d="M110.71 114.432C110.71 93.3762 110.71 72.3881 110.71 51.4C110.71 50.3099 110.71 50.2864 109.649 50.2772C106.759 50.2523 103.87 50.2404 100.98 50.2392C91.2652 50.2349 81.5506 50.2212 71.836 50.2444C66.9263 50.2561 62.6715 51.9371 59.3188 55.5753C57.1852 57.8907 56.3213 60.7679 56.0735 63.8639C55.5971 69.8176 60.0372 74.9167 65.2642 76.1328C67.1062 76.5614 69.0706 76.5445 70.9818 76.5784C75.2951 76.6549 79.61 76.635 83.9242 76.6571C84.8732 76.662 85.1556 76.9554 85.1559 77.9252C85.1572 81.1785 85.1577 84.4318 85.1556 87.685C85.155 88.6664 84.8426 88.9885 83.8701 88.9937C78.2921 89.0232 72.714 89.0641 67.136 89.0704C61.9382 89.0762 57.4717 87.2515 53.6205 83.7521C51.0923 81.4548 48.8189 78.983 47.1971 75.9576C45.5934 72.9661 44.6379 69.7776 44.5735 66.381C44.5309 64.1295 44.5222 61.8525 44.8023 59.6251C45.2758 55.8606 46.9297 52.5247 49.0862 49.4329C51.7308 45.6414 55.0542 42.6256 59.237 40.6062C62.762 38.9044 66.505 37.9563 70.3991 37.8535C75.2728 37.7247 80.152 37.8092 85.0289 37.7973C89.1851 37.787 93.3413 37.765 97.4976 37.7583C101.813 37.7515 106.128 37.7654 110.443 37.7541C113.943 37.7449 117.444 37.7133 120.944 37.6884C121.98 37.681 122.292 37.9755 122.292 38.9959C122.293 68.4335 122.291 97.871 122.304 127.309C122.304 127.932 122.117 128.131 121.495 128.13C105.545 128.107 89.5957 128.122 73.6463 128.074C68.9755 128.061 64.3041 127.932 59.6575 127.342C54.9529 126.744 50.4289 125.482 46.0197 123.771C40.8958 121.784 36.1033 119.18 31.6671 115.938C27.8676 113.162 24.4024 110.02 21.3064 106.461C18.5114 103.248 16.0256 99.8177 13.9355 96.1195C10.9514 90.839 8.61505 85.288 7.30429 79.3354C6.18078 74.2332 5.94129 69.058 5.95997 63.8595C5.97558 59.5148 6.36338 55.2062 7.30689 50.9587C8.10037 47.3866 9.23102 43.9221 10.6255 40.5379C11.9412 37.3451 13.4888 34.2754 15.3023 31.3382C17.125 28.3861 19.1608 25.593 21.4307 22.9651C23.9457 20.0534 26.6706 17.36 29.6279 14.903C34.2012 11.1036 39.2186 8.02632 44.6593 5.62145C50.0701 3.22982 55.7017 1.58097 61.528 0.643446C63.5445 0.31898 65.6207 0.269716 67.6702 0.262729C85.6291 0.201507 103.588 0.181689 121.547 0.129897C122.178 0.12808 122.34 0.296225 122.339 0.921898C122.319 10.2072 122.325 19.4926 122.325 28.778C122.324 29.7087 122.323 29.7091 121.396 29.7091C114.55 29.7092 107.705 29.7159 100.86 29.7072C94.1505 29.6986 87.4413 29.663 80.7322 29.6605C75.8954 29.6587 71.0468 29.7911 66.3074 30.7809C59.45 32.213 53.0879 34.8645 47.6318 39.3801C44.4042 42.0514 41.8441 45.2873 39.8195 48.9599C37.9399 52.3696 36.5574 55.9456 36.0033 59.8136C35.3497 64.3771 35.8178 68.8601 37.0427 73.2792C38.1251 77.184 39.8037 80.8059 42.2319 84.0651C44.7426 87.4351 47.841 90.147 51.4081 92.3556C54.9446 94.5453 58.7077 96.1235 62.8596 96.6011C65.0085 96.8484 67.1782 97.0113 69.3402 97.031C76.3195 97.0943 83.2996 97.0748 90.2794 97.0842C92.0829 97.0867 92.1496 97.0848 92.2373 95.2914C92.3364 93.2646 92.3115 91.2312 92.3201 89.2006C92.3445 83.4641 92.3677 77.7275 92.3669 71.9909C92.3668 71.1148 92.2305 70.2392 92.1693 69.3625C92.1342 68.8585 91.8669 68.6552 91.3779 68.6527C87.4293 68.6324 83.4808 68.597 79.5321 68.583C76.281 68.5715 73.0288 68.6364 69.7791 68.5682C66.9262 68.5083 65.5117 66.9038 65.3696 63.7473C65.2513 61.1177 66.4277 59.194 68.6585 57.8845C68.979 57.6964 69.3736 57.618 69.7442 57.534C72.7979 56.842 75.9001 57.0513 78.9901 57.0601C82.2876 57.0694 85.5849 57.1171 88.8823 57.12C93.3776 57.1239 97.8729 57.1017 102.368 57.0897C103.639 57.0863 103.871 57.3144 103.871 58.5794C103.871 75.0265 103.871 91.4735 103.871 107.921C103.871 108.939 103.871 108.943 102.858 108.939C98.0244 108.921 93.1906 108.89 88.3567 108.885C83.0027 108.879 77.6479 108.953 72.2946 108.889C66.7299 108.822 61.2041 108.34 55.8419 106.707C51.9618 105.526 48.3106 103.842 44.8874 101.661C41.1545 99.2822 37.8127 96.4511 34.9451 93.076C32.2195 89.868 30.1093 86.2775 28.4684 82.4106C26.9576 78.8504 25.8108 75.1771 25.1585 71.3579C24.6091 68.1416 24.4108 64.9125 24.6259 61.6475C24.8557 58.1595 25.5083 54.7647 26.5768 51.4444C27.9614 47.1422 29.9982 43.1608 32.5892 39.4684C36.6224 33.7206 41.6054 28.9892 47.695 25.4441C53.2238 22.2255 59.1823 20.2723 65.4716 19.2281C68.9813 18.6454 72.5155 18.451 76.0612 18.4387C85.4814 18.4059 94.9017 18.4053 104.322 18.3972C106.016 18.3958 107.709 18.4256 109.403 18.4293C110.381 18.4315 110.656 18.1529 110.659 17.1803C110.665 15.5989 110.626 14.0163 110.676 12.4365C110.699 11.7185 110.425 11.4586 109.751 11.4545C106.637 11.4356 103.523 11.3873 100.408 11.3818C94.7153 11.3716 89.0224 11.3923 83.3295 11.3841C80.0322 11.3793 76.7348 11.358 73.4378 11.3174C69.5041 11.2689 65.5945 11.4889 61.7133 12.1744C57.5152 12.9159 53.5054 14.2224 49.6731 16.0804C44.3545 18.6589 39.3245 21.6918 34.7634 25.4782C31.5082 28.1805 28.7776 31.3379 26.5223 34.9004C23.4132 39.8117 20.8934 45.0217 19.0064 50.5175C17.3894 55.2267 16.8523 60.0927 17.1677 65.0661C17.5775 71.5299 18.9937 77.7659 21.3404 83.7888C23.6193 89.6376 26.7131 95.0184 30.918 99.7046C34.1162 103.269 37.8511 106.189 41.9863 108.609C46.9443 111.51 52.2294 113.582 57.7865 114.999C61.2403 115.88 64.7508 116.344 68.306 116.361C78.4699 116.409 88.6341 116.412 98.7982 116.416C102.546 116.417 106.293 116.364 110.04 116.359C110.58 116.358 110.772 116.181 110.717 115.65C110.678 115.27 110.71 114.883 110.71 114.432Z" fill="black"/>
</g>
<defs>
<clipPath id="clip0_17_2428">
<rect width="128" height="128" fill="white" transform="translate(0.130859 0.129883)"/>
</clipPath>
</defs>
</svg>
